<?xml version="1.0" encoding="UTF-8" standalone="no"?>
<svg width="1000" height="1000" viewBox="0 0 1000 1000" xmlns="http://www.w3.org/2000/svg">
  <!-- Background -->
  <rect width="100%" height="100%" fill="#000000"/>
  
  <!-- Light dots grid pattern -->
  <g fill="#ffffff" opacity="0.07">
    <circle cx="50" cy="50" r="1" />
    <circle cx="150" cy="50" r="1" />
    <circle cx="250" cy="50" r="1" />
    <circle cx="350" cy="50" r="1" />
    <circle cx="450" cy="50" r="1" />
    <circle cx="550" cy="50" r="1" />
    <circle cx="650" cy="50" r="1" />
    <circle cx="750" cy="50" r="1" />
    <circle cx="850" cy="50" r="1" />
    <circle cx="950" cy="50" r="1" />
    
    <circle cx="50" cy="150" r="1" />
    <circle cx="150" cy="150" r="1" />
    <circle cx="250" cy="150" r="1" />
    <circle cx="350" cy="150" r="1" />
    <circle cx="450" cy="150" r="1" />
    <circle cx="550" cy="150" r="1" />
    <circle cx="650" cy="150" r="1" />
    <circle cx="750" cy="150" r="1" />
    <circle cx="850" cy="150" r="1" />
    <circle cx="950" cy="150" r="1" />
    
    <circle cx="50" cy="250" r="1" />
    <circle cx="150" cy="250" r="1" />
    <circle cx="250" cy="250" r="1" />
    <circle cx="350" cy="250" r="1" />
    <circle cx="450" cy="250" r="1" />
    <circle cx="550" cy="250" r="1" />
    <circle cx="650" cy="250" r="1" />
    <circle cx="750" cy="250" r="1" />
    <circle cx="850" cy="250" r="1" />
    <circle cx="950" cy="250" r="1" />
    
    <circle cx="50" cy="350" r="1" />
    <circle cx="150" cy="350" r="1" />
    <circle cx="250" cy="350" r="1" />
    <circle cx="350" cy="350" r="1" />
    <circle cx="450" cy="350" r="1" />
    <circle cx="550" cy="350" r="1" />
    <circle cx="650" cy="350" r="1" />
    <circle cx="750" cy="350" r="1" />
    <circle cx="850" cy="350" r="1" />
    <circle cx="950" cy="350" r="1" />
    
    <circle cx="50" cy="450" r="1" />
    <circle cx="150" cy="450" r="1" />
    <circle cx="250" cy="450" r="1" />
    <circle cx="350" cy="450" r="1" />
    <circle cx="450" cy="450" r="1" />
    <circle cx="550" cy="450" r="1" />
    <circle cx="650" cy="450" r="1" />
    <circle cx="750" cy="450" r="1" />
    <circle cx="850" cy="450" r="1" />
    <circle cx="950" cy="450" r="1" />
    
    <circle cx="50" cy="550" r="1" />
    <circle cx="150" cy="550" r="1" />
    <circle cx="250" cy="550" r="1" />
    <circle cx="350" cy="550" r="1" />
    <circle cx="450" cy="550" r="1" />
    <circle cx="550" cy="550" r="1" />
    <circle cx="650" cy="550" r="1" />
    <circle cx="750" cy="550" r="1" />
    <circle cx="850" cy="550" r="1" />
    <circle cx="950" cy="550" r="1" />
    
    <circle cx="50" cy="650" r="1" />
    <circle cx="150" cy="650" r="1" />
    <circle cx="250" cy="650" r="1" />
    <circle cx="350" cy="650" r="1" />
    <circle cx="450" cy="650" r="1" />
    <circle cx="550" cy="650" r="1" />
    <circle cx="650" cy="650" r="1" />
    <circle cx="750" cy="650" r="1" />
    <circle cx="850" cy="650" r="1" />
    <circle cx="950" cy="650" r="1" />
    
    <circle cx="50" cy="750" r="1" />
    <circle cx="150" cy="750" r="1" />
    <circle cx="250" cy="750" r="1" />
    <circle cx="350" cy="750" r="1" />
    <circle cx="450" cy="750" r="1" />
    <circle cx="550" cy="750" r="1" />
    <circle cx="650" cy="750" r="1" />
    <circle cx="750" cy="750" r="1" />
    <circle cx="850" cy="750" r="1" />
    <circle cx="950" cy="750" r="1" />
    
    <circle cx="50" cy="850" r="1" />
    <circle cx="150" cy="850" r="1" />
    <circle cx="250" cy="850" r="1" />
    <circle cx="350" cy="850" r="1" />
    <circle cx="450" cy="850" r="1" />
    <circle cx="550" cy="850" r="1" />
    <circle cx="650" cy="850" r="1" />
    <circle cx="750" cy="850" r="1" />
    <circle cx="850" cy="850" r="1" />
    <circle cx="950" cy="850" r="1" />
    
    <circle cx="50" cy="950" r="1" />
    <circle cx="150" cy="950" r="1" />
    <circle cx="250" cy="950" r="1" />
    <circle cx="350" cy="950" r="1" />
    <circle cx="450" cy="950" r="1" />
    <circle cx="550" cy="950" r="1" />
    <circle cx="650" cy="950" r="1" />
    <circle cx="750" cy="950" r="1" />
    <circle cx="850" cy="950" r="1" />
    <circle cx="950" cy="950" r="1" />
  </g>
  
  <!-- Diagonal lines pattern -->
  <g stroke="#ffffff" stroke-width="0.5" opacity="0.03">
    <line x1="0" y1="0" x2="1000" y2="1000" />
    <line x1="200" y1="0" x2="1000" y2="800" />
    <line x1="400" y1="0" x2="1000" y2="600" />
    <line x1="600" y1="0" x2="1000" y2="400" />
    <line x1="800" y1="0" x2="1000" y2="200" />
    
    <line x1="0" y1="200" x2="800" y2="1000" />
    <line x1="0" y1="400" x2="600" y2="1000" />
    <line x1="0" y1="600" x2="400" y2="1000" />
    <line x1="0" y1="800" x2="200" y2="1000" />
  </g>
  
  <!-- Subtle texture overlay -->
  <filter id="noise" x="0%" y="0%" width="100%" height="100%">
    <feTurbulence type="fractalNoise" baseFrequency="0.8" numOctaves="3" stitchTiles="stitch" result="noise"/>
    <feColorMatrix type="matrix" values="1 0 0 0 0 0 1 0 0 0 0 0 1 0 0 0 0 0 0.03 0" />
  </filter>
  <rect width="100%" height="100%" filter="url(#noise)" opacity="0.4"/>
</svg>